<svg width="24px" height="11px" viewBox="0 0 24 11" version="1.1" xmlns="http://www.w3.org/2000/svg" xmlns:xlink="http://www.w3.org/1999/xlink">
    <!-- Generator: Sketch 51.3 (57544) - http://www.bohemiancoding.com/sketch -->
    <desc>Created with Sketch.</desc>
    <defs></defs>
    <g id="Home" stroke="none" stroke-width="1" fill="none" fill-rule="evenodd">
        <g transform="translate(-499.000000, -5584.000000)" fill="#0092FF" fill-rule="nonzero" id="Shape">
            <path d="M523,5589.39866 C523,5589.23031 522.918182,5588.9778 522.754545,5588.89363 L518.254545,5584.26417 C517.845455,5583.92748 517.354545,5583.92748 517.027273,5584.18 C516.7,5584.43251 516.618182,5585.02172 516.945455,5585.3584 L520.136364,5588.64111 L499.9,5588.64111 C499.409091,5588.64111 499,5588.9778 499,5589.48283 C499,5589.98786 499.409091,5590.32455 499.9,5590.32455 L520.136364,5590.32455 L516.945455,5593.60726 C516.618182,5593.94394 516.7,5594.44898 517.027273,5594.78566 C517.354545,5595.12235 518.009091,5595.03818 518.254545,5594.70149 L522.754545,5590.07203 C522.918182,5589.81952 523,5589.65117 523,5589.39866 Z"></path>
        </g>
    </g>
</svg>